<svg xmlns="http://www.w3.org/2000/svg" lang="en" viewBox="0 0 512 512" role="img" aria-labelledby="title desc">
  <title id="title">StackBriefs S Mark - Standard</title>
  <desc id="desc">Standard optical version for display sizes of 32 pixels and larger.</desc>
  <rect width="512" height="512" fill="#2346C9"/>
  <g fill="#FFFFFF" transform="translate(42.5 12)">
    <path transform="translate(264 139.8) rotate(4.5) scale(.96 .93) translate(-260.5 -144.5)" d="M216 107C236 93 272 96 294 114C317 133 323 162 310 181C301 194 288 199 275 195C255 189 237 173 219 158L198 140C186 129 197 116 216 107Z"/>
    <path transform="translate(214.5 243.5) rotate(-2.5) scale(1.15 1.09) translate(-192.5 -231.5)" d="M159 144C146 133 133 132 122 143C106 158 106 185 119 210C137 246 171 275 204 301C231 322 257 329 272 316C290 300 279 273 262 249C240 217 211 191 184 164L159 144Z"/>
    <path transform="translate(164.5 347.8) rotate(6) scale(1.05) translate(-173 -344.5)" d="M128 308C144 296 167 301 188 315L219 337C238 351 239 365 225 375C205 390 170 386 147 371C125 357 114 337 118 323C120 316 123 312 128 308Z"/>
  </g>
</svg>
